# xmcd CD database file
#
# Track frame offsets:
#	150
#	35520
#	70829
#	103659
#	144511
#	178679
#	217921
#	251488
#
# Disc length: 3839 seconds
#
# Revision: 0
# Processed by: cddbd v1.5PL3 Copyright (c) Steve Scherf et al.
# Submitted via: CDex 1.51
#
DISCID=6e0efd08
DTITLE=Tom Brigandi And The Late Night New York Band - After Hours
DYEAR=2002
DGENRE=Jazz
TTITLE0=One For Newk
TTITLE1=Young And Fine
TTITLE2=Candy
TTITLE3=I Fall In Love Too Easily
TTITLE4=Falling In Love With Love
TTITLE5=Five
TTITLE6=Too Young To Go Steady
TTITLE7=Sharkey
EXTD=YEAR: 2002
EXTT0=
EXTT1=
EXTT2=
EXTT3=
EXTT4=
EXTT5=
EXTT6=
EXTT7=
PLAYORDER=
